<svg width="45" height="14" viewBox="0 0 45 14" fill="none" xmlns="http://www.w3.org/2000/svg">
<path d="M3.23 10.11C2.80333 10.11 2.37667 10.0633 1.95 9.97C1.52333 9.87667 1.15333 9.74 0.84 9.56C0.653333 9.46 0.536667 9.32667 0.49 9.16C0.443333 8.98667 0.453333 8.82 0.52 8.66C0.586667 8.5 0.693333 8.38667 0.84 8.32C0.986667 8.25333 1.16333 8.27 1.37 8.37C1.63667 8.52333 1.93333 8.63667 2.26 8.71C2.58667 8.78333 2.91 8.82 3.23 8.82C3.71 8.82 4.05333 8.74667 4.26 8.6C4.47333 8.44667 4.58 8.25667 4.58 8.03C4.58 7.83667 4.50667 7.68333 4.36 7.57C4.21333 7.45667 3.95667 7.36 3.59 7.28L2.46 7.04C1.2 6.77333 0.57 6.12 0.57 5.08C0.57 4.63333 0.69 4.24333 0.93 3.91C1.17 3.57 1.50333 3.30667 1.93 3.12C2.36333 2.93333 2.86333 2.84 3.43 2.84C3.80333 2.84 4.17 2.88667 4.53 2.98C4.89 3.06667 5.20667 3.19667 5.48 3.37C5.64667 3.47 5.75 3.6 5.79 3.76C5.83 3.92 5.81667 4.07333 5.75 4.22C5.69 4.36667 5.58333 4.47 5.43 4.53C5.28333 4.59 5.1 4.56667 4.88 4.46C4.66 4.34667 4.42667 4.26333 4.18 4.21C3.93333 4.15667 3.68 4.13 3.42 4.13C3 4.13 2.67333 4.21333 2.44 4.38C2.21333 4.54 2.1 4.75 2.1 5.01C2.1 5.20333 2.17 5.36 2.31 5.48C2.45 5.6 2.69333 5.69667 3.04 5.77L4.17 6.01C5.46333 6.29 6.11 6.92333 6.11 7.91C6.11 8.35 5.99 8.73667 5.75 9.07C5.51667 9.39667 5.18333 9.65333 4.75 9.84C4.32333 10.02 3.81667 10.11 3.23 10.11ZM7.74625 10.09C7.23958 10.09 6.98625 9.83333 6.98625 9.32V3.63C6.98625 3.11667 7.23958 2.86 7.74625 2.86C8.24625 2.86 8.49625 3.11667 8.49625 3.63V5.76C8.66958 5.50667 8.89292 5.31667 9.16625 5.19C9.43958 5.05667 9.74292 4.99 10.0763 4.99C11.2296 4.99 11.8063 5.67667 11.8063 7.05V9.32C11.8063 9.83333 11.5529 10.09 11.0463 10.09C10.8063 10.09 10.6196 10.0233 10.4863 9.89C10.3596 9.75667 10.2963 9.56667 10.2963 9.32V7.12C10.2963 6.78 10.2329 6.53667 10.1063 6.39C9.97958 6.23667 9.79292 6.16 9.54625 6.16C9.22625 6.16 8.96958 6.26 8.77625 6.46C8.58958 6.66 8.49625 6.92667 8.49625 7.26V9.32C8.49625 9.83333 8.24625 10.09 7.74625 10.09ZM14.5935 10.11C14.2268 10.11 13.9035 10.04 13.6235 9.9C13.3435 9.76 13.1202 9.57 12.9535 9.33C12.7935 9.09 12.7135 8.82 12.7135 8.52C12.7135 8.16667 12.8068 7.88333 12.9935 7.67C13.1802 7.45667 13.4835 7.30667 13.9035 7.22C14.3235 7.12667 14.8802 7.08 15.5735 7.08H15.9335V6.91C15.9335 6.61667 15.8668 6.41 15.7335 6.29C15.6002 6.16333 15.3735 6.1 15.0535 6.1C14.8735 6.1 14.6768 6.12333 14.4635 6.17C14.2502 6.21 14.0202 6.28 13.7735 6.38C13.5868 6.46 13.4302 6.46667 13.3035 6.4C13.1768 6.32667 13.0935 6.22 13.0535 6.08C13.0135 5.93333 13.0235 5.78667 13.0835 5.64C13.1502 5.49333 13.2768 5.38667 13.4635 5.32C13.7768 5.2 14.0702 5.11667 14.3435 5.07C14.6235 5.01667 14.8802 4.99 15.1135 4.99C15.8735 4.99 16.4402 5.16333 16.8135 5.51C17.1868 5.85 17.3735 6.38 17.3735 7.1V9.32C17.3735 9.83333 17.1402 10.09 16.6735 10.09C16.2002 10.09 15.9635 9.83333 15.9635 9.32V9.26C15.8635 9.52 15.6935 9.72667 15.4535 9.88C15.2202 10.0333 14.9335 10.11 14.5935 10.11ZM14.9335 9.1C15.2135 9.1 15.4502 9.00333 15.6435 8.81C15.8368 8.61667 15.9335 8.36667 15.9335 8.06V7.86H15.5835C15.0702 7.86 14.7068 7.90667 14.4935 8C14.2802 8.08667 14.1735 8.24 14.1735 8.46C14.1735 8.64667 14.2368 8.8 14.3635 8.92C14.4968 9.04 14.6868 9.1 14.9335 9.1ZM19.2799 10.09C18.7599 10.09 18.4999 9.83333 18.4999 9.32V5.77C18.4999 5.26333 18.7466 5.01 19.2399 5.01C19.7333 5.01 19.9799 5.26333 19.9799 5.77V5.95C20.2199 5.35667 20.7166 5.03667 21.4699 4.99C21.6366 4.97667 21.7633 5.02 21.8499 5.12C21.9433 5.21333 21.9933 5.37 21.9999 5.59C22.0133 5.79667 21.9699 5.96 21.8699 6.08C21.7766 6.2 21.6166 6.27333 21.3899 6.3L21.1599 6.32C20.4133 6.39333 20.0399 6.77333 20.0399 7.46V9.32C20.0399 9.83333 19.7866 10.09 19.2799 10.09ZM25.0831 10.11C24.5031 10.11 24.0031 10.0067 23.5831 9.8C23.1698 9.58667 22.8498 9.29 22.6231 8.91C22.4031 8.52333 22.2931 8.07 22.2931 7.55C22.2931 7.04333 22.3998 6.6 22.6131 6.22C22.8331 5.83333 23.1298 5.53333 23.5031 5.32C23.8831 5.1 24.3198 4.99 24.8131 4.99C25.5265 4.99 26.0931 5.21667 26.5131 5.67C26.9331 6.11667 27.1431 6.72333 27.1431 7.49C27.1431 7.74333 26.9865 7.87 26.6731 7.87H23.7331C23.7865 8.25667 23.9265 8.54 24.1531 8.72C24.3865 8.89333 24.7065 8.98 25.1131 8.98C25.2731 8.98 25.4531 8.96333 25.6531 8.93C25.8598 8.89 26.0565 8.82333 26.2431 8.73C26.4365 8.63667 26.5998 8.62 26.7331 8.68C26.8665 8.73333 26.9565 8.82667 27.0031 8.96C27.0565 9.09333 27.0565 9.23333 27.0031 9.38C26.9565 9.52 26.8465 9.63667 26.6731 9.73C26.4398 9.85667 26.1798 9.95 25.8931 10.01C25.6131 10.0767 25.3431 10.11 25.0831 10.11ZM24.8731 5.99C24.5531 5.99 24.2931 6.08667 24.0931 6.28C23.8998 6.47333 23.7798 6.74333 23.7331 7.09H25.8931C25.8531 6.35667 25.5131 5.99 24.8731 5.99Z" fill="#C4C4C4"/>
<path d="M44.8215 6.17081L41.0402 3.11754C40.7092 2.85025 40.1875 3.06724 40.1875 3.48244V5.09065C36.7365 5.12759 34 5.77432 34 8.83243C34 10.0667 34.8504 11.2895 35.7904 11.9288C36.0837 12.1283 36.5017 11.8779 36.3936 11.5545C35.4194 8.64134 36.8556 7.86795 40.1875 7.82313V9.58927C40.1875 10.0051 40.7096 10.2211 41.0402 9.95418L44.8215 6.90061C45.0593 6.70852 45.0597 6.36316 44.8215 6.17081Z" fill="#C4C4C4"/>
</svg>
